<svg width="378" height="378" viewBox="0 0 378 378" fill="none" xmlns="http://www.w3.org/2000/svg">
<ellipse cx="188.5" cy="189" rx="141.5" ry="138" fill="white"/>
<path d="M174.289 0.372681C119.289 4.97238 69.9412 32.5049 36.7577 76.9248C17.5046 102.749 5.67685 132.056 0.880017 165.962C-0.434184 175.621 -0.237054 205.651 1.20857 215.244C4.49407 236.403 10.0794 254.079 19.1474 272.346C28.7411 291.534 38.269 304.939 53.5137 320.643C116.727 385.433 215.949 396.67 291.384 347.519C334.818 319.263 365.111 274.186 374.573 223.787C377.398 208.805 378.318 186.792 376.873 171.81C373.259 135.932 360.708 103.8 338.827 74.625C331.138 64.3085 312.477 45.6469 302.292 38.0902C275.022 17.7858 245.518 5.62949 212.86 1.35834C203.201 0.109833 183.685 -0.415833 174.289 0.372681ZM139.528 151.769C163.052 169.51 183.685 184.886 185.262 185.938C188.022 187.646 188.351 187.712 190.125 186.858C191.636 186.069 227.054 159.654 276.993 122.068C280.41 119.439 283.433 117.336 283.762 117.336C284.616 117.336 284.287 139.941 283.433 141.124C282.973 141.715 265.757 154.791 245.124 170.299C224.557 185.741 204.121 201.117 199.784 204.402C195.447 207.753 191.176 210.842 190.322 211.236C187.825 212.616 190.256 214.193 154.116 186.923C118.172 159.785 114.098 156.762 113.441 156.762C112.916 156.762 112.718 171.613 112.718 207.162C112.718 234.957 112.521 258.284 112.324 259.139C111.93 260.584 111.799 260.65 102.599 260.453L93.334 260.256L93.1369 188.698L93.0054 117.205L94.7796 118.322C95.831 118.979 115.938 134.027 139.528 151.769ZM284.222 212.09C284.222 239.031 283.959 259.336 283.63 259.861C283.104 260.65 281.33 260.781 274.562 260.65C269.962 260.584 265.888 260.19 265.494 259.861C265.1 259.467 264.771 248.954 264.64 232C264.509 216.559 264.18 204.731 263.851 204.731C263.523 204.731 247.227 216.821 227.58 231.54C207.932 246.325 191.176 258.744 190.388 259.204C189.533 259.664 188.285 259.796 187.496 259.533C186.774 259.336 176.523 251.845 164.695 242.974C152.933 234.103 140.974 225.101 138.148 222.932C135.323 220.83 132.76 218.333 132.366 217.479C132.037 216.559 131.774 211.105 131.774 205.256C131.774 195.926 131.906 194.809 132.826 195.137C133.351 195.334 145.442 204.205 159.57 214.784C173.763 225.429 185.985 234.432 186.839 234.892C187.694 235.352 188.942 235.483 189.665 235.286C190.913 234.892 203.53 225.495 257.609 184.689C278.176 169.182 283.302 165.436 284.09 165.305C284.156 165.305 284.222 186.398 284.222 212.09Z" fill="#0C134F"/>
</svg>
