<svg width="410" height="410" viewBox="0 0 410 410" fill="none" xmlns="http://www.w3.org/2000/svg">
<circle cx="205" cy="205" r="205" fill="#4942E4"/>
<circle cx="199.5" cy="200.5" r="173.5" fill="white"/>
<rect x="205" y="113" width="141" height="206" fill="url(#paint0_linear_548_660)"/>
<path d="M190.036 10.3845C133.223 15.1302 82.2478 43.5368 47.9699 89.3669C28.0819 116.011 15.8641 146.248 10.909 181.231C9.5515 191.197 9.75513 222.179 11.2484 232.078C14.6423 253.908 20.4118 272.145 29.7789 290.992C39.6889 310.789 49.5311 324.619 65.2785 340.822C130.576 407.669 233.071 419.262 310.993 368.551C355.86 339.399 387.151 292.891 396.926 240.891C399.844 225.434 400.795 202.722 399.301 187.264C395.568 150.248 382.604 117.095 360.001 86.994C352.059 76.3501 332.782 57.096 322.261 49.2994C294.092 28.3505 263.615 15.8082 229.88 11.4015C219.902 10.1133 199.743 9.57096 190.036 10.3845ZM154.13 166.587C178.43 184.891 199.743 200.756 201.372 201.841C204.223 203.603 204.562 203.671 206.395 202.79C207.956 201.976 244.542 174.722 296.128 135.943C299.658 133.231 302.78 131.061 303.12 131.061C304.002 131.061 303.663 154.383 302.78 155.604C302.305 156.214 284.521 169.705 263.208 185.705C241.962 201.637 220.853 217.501 216.373 220.891C211.893 224.349 207.481 227.535 206.598 227.942C204.019 229.366 206.531 230.993 169.198 202.857C132.07 174.858 127.861 171.739 127.182 171.739C126.639 171.739 126.436 187.061 126.436 223.739C126.436 252.416 126.232 276.484 126.028 277.365C125.621 278.857 125.485 278.925 115.983 278.721L106.412 278.518L106.208 204.688L106.073 130.926L107.905 132.078C108.991 132.756 129.762 148.282 154.13 166.587ZM303.595 228.823C303.595 256.62 303.323 277.569 302.984 278.111C302.441 278.925 300.608 279.06 293.617 278.925C288.865 278.857 284.657 278.45 284.25 278.111C283.843 277.704 283.503 266.857 283.367 249.366C283.232 233.433 282.892 221.23 282.553 221.23C282.214 221.23 265.38 233.705 245.085 248.891C224.79 264.145 207.481 276.959 206.666 277.433C205.784 277.908 204.494 278.043 203.68 277.772C202.933 277.569 192.344 269.84 180.126 260.687C167.976 251.535 155.623 242.247 152.704 240.01C149.785 237.84 147.138 235.264 146.731 234.383C146.392 233.433 146.12 227.806 146.12 221.773C146.12 212.145 146.256 210.993 147.206 211.332C147.749 211.535 160.238 220.688 174.832 231.603C189.493 242.586 202.119 251.874 203.001 252.349C203.883 252.823 205.173 252.959 205.92 252.755C207.209 252.349 220.242 242.654 276.105 200.552C297.35 184.553 302.644 180.688 303.459 180.553C303.527 180.553 303.595 202.315 303.595 228.823Z" fill="#0C134F"/>
<defs>
<linearGradient id="paint0_linear_548_660" x1="244.5" y1="222" x2="346" y2="135" gradientUnits="userSpaceOnUse">
<stop stop-color="#BDB5B5"/>
<stop offset="1" stop-color="#575353"/>
</linearGradient>
</defs>
</svg>
